. 
 
http://www.torrenting.com          :     Once & For all ;)


               www . Torrenting . Com 

(((((((((((((= Enjoy No RAR releases =))))))))))))))))))))


...................................NFO:....................................

.[IMG]http://img36.imageshack.us/img36/2352/therumdiarybluray.jpg[/IMG]


[color=blue][size=5][b]The.Rum.Diary.2011.BDRip.XVID.AC3.HQ.Hive-CM8 [/b][/size][/color]


[b]Thx Hive

CM8 Doing it right the first time :D


Source: Bluray

Notes:

The DVD looked bad, dark video and colouring werent that nice, thought bluray is nicer, well it isnt.
Looks like the producer wanted it to look like that, cant watch a movie like this where you dont see much at daylight, 
and nothing in darkness.
I wont release a copy i wouldnt watch myself, its against everything i believe.
so i had to adjust some settings to normal levels, looks very nice now.
check the screens!

A screenshotcomparison is here:


[url]http://screenshotcomparison.com/comparison/105375[/url]


Video: 720x384 @bitrate 1700 2pass
Audio: English DTS to AC3 5.1 @448
Sample: yes included
Subs: yes english in srt /subs[/b]


[url]http://www.imdb.com/title/tt0376136/[/url]


General
Complete name                  : The.Rum.Diary.2011.BDRip.XVID.AC3.HQ.Hive-CM8.avi
Format                         : AVI
Format/Info                    : Audio Video Interleave
File size                      : 1.81 GiB
Duration                       : 1h 59mn
Overall bit rate               : 2 157 Kbps
Writing application            : Nandub v1.0rc2
Writing library                : Nandub build 1853/release

Video
ID                             : 0
Format                         : MPEG-4 Visual
Format profile                 : Advanced Simple@L5
Format settings, BVOP          : 2
Format settings, QPel          : Yes
Format settings, GMC           : No warppoints
Format settings, Matrix        : Default (H.263)
Muxing mode                    : Packed bitstream
Codec ID                       : XVID
Codec ID/Hint                  : XviD
Duration                       : 1h 59mn
Bit rate                       : 1 700 Kbps
Width                          : 720 pixels
Height                         : 384 pixels
Display aspect ratio           : 1.875
Frame rate                     : 23.976 fps
Color space                    : YUV
Chroma subsampling             : 4:2:0
Bit depth                      : 8 bits
Scan type                      : Progressive
Compression mode               : Lossy
Bits/(Pixel*Frame)             : 0.256
Stream size                    : 1.42 GiB (79%)
Writing library                : XviD 1.2.1 (UTC 2008-12-04)

Audio
ID                             : 1
Format                         : AC-3
Format/Info                    : Audio Coding 3
Mode extension                 : CM (complete main)
Codec ID                       : 2000
Duration                       : 1h 59mn
Bit rate mode                  : Constant
Bit rate                       : 448 Kbps
Channel(s)                     : 6 channels
Channel positions              : Front: L C R, Side: L R, LFE
Sampling rate                  : 48.0 KHz
Bit depth                      : 16 bits
Compression mode               : Lossy
Stream size                    : 384 MiB (21%)
Alignment                      : Split accross interleaves
Interleave, duration           : 42 ms (1.00 video frame)
Interleave, preload duration   : 500 ms



American journalist Paul Kemp takes on a freelance job in Puerto Rico for a local newspaper 
during the 1950s and struggles to find a balance between island culture and the expatriates who live there. 


Johnny Depp	... 	Kemp
Aaron Eckhart	... 	Sanderson
Michael Rispoli	... 	Sala
Amber Heard	... 	Chenault


[img]http://img190.imageshack.us/img190/4536/27218953.png[/img]
[img]http://img813.imageshack.us/img813/1381/rdrd.png[/img]
[img]http://img341.imageshack.us/img341/9067/rdrdrd.png[/img]
[img]http://img706.imageshack.us/img706/9986/rdrdrdrd.png[/img]
[img]http://img208.imageshack.us/img208/1603/rdrdrdrdrd.png[/img]
[img]http://img3.imageshack.us/img3/329/rdrdrdrdrdrd.png[/img]
[img]http://img207.imageshack.us/img207/5276/rdrdrdrdrdrdrd.png[/img]
[img]http://img859.imageshack.us/img859/5373/rdrdrdrdrdrdrrdd.png[/img]
[img]http://img521.imageshack.us/img521/8346/rdrdrdrdrdrdrrdrdd.png[/img]




Greetz

ViSiON,SPK,SceneLovers,PRESTiGE,SANTi,3LT0N,YanKeeS,COPYxRIGHT,THC,T0XiC
D2U,LKRG,Feel-Free,FLAWL3SS,WBZ,BHRG,26K,NOVA,SeToNeUp,TED,MAGNET,jtr
Unevano,Rapeseed,SAFC,goldadvance,KaN1vE,Pinnz,Wayne
Mr Hive,and most P2P groups
Great Work Guys :D

LOOKING FOR ANYTHING YOU WANT TO LOOK AND SOUND BETTER

CM8@hushmail.com